# xmcd CD database file
#
# Track frame offsets:
#	150
#	12986
#	27224
#	39695
#	53708
#	70351
#	87371
#	103869
#	117172
#	130200
#	144084
#	159035
#	173870
#	185921
#	200643
#	214226
#	228397
#	243296
#	259168
#	270636
#
# Disc length: 3778 seconds
#
# Revision: 1
# Processed by: cddbd v1.5.2PL0 Copyright (c) Steve Scherf et al.
# Submitted via: CDex 1.70beta2
#
DISCID=1e0ec014
DTITLE=Benny Carter - Jazz Roads CD104 - Swing - Vol.1 (1946-52)
DYEAR=2006
DGENRE=Jazz
TTITLE0=Arnold Ross Quintet - The Moon Is Low
TTITLE1=Arnold Ross Quintet - Stairway To The Stars
TTITLE2=Arnold Ross Quintet - Bye Bye Blues
TTITLE3=Arnold Ross Quintet - I Don't Know Why I Love You, Like I Do
TTITLE4=Benny Carter - Isn't It Romantic
TTITLE5=Benny Carter - Some Other Spring
TTITLE6=Benny Carter - These Things You Left Me
TTITLE7=Benny Carter - Gone With the Wind
TTITLE8=Benny Carter - I Got It Bad
TTITLE9=Benny Carter - Long Ago (And Far Away)
TTITLE10=Benny Carter - I've Got The World On A String
TTITLE11=Benny Carter - ‘Round Midnight
TTITLE12=Benny Carter - Alone Together
TTITLE13=Benny Carter - Bewitched
TTITLE14=Benny Carter - Cocktails For Two
TTITLE15=Benny Carter - Key Largo
TTITLE16=Benny Carter - Street Scene
TTITLE17=Benny Carter - Imagination
TTITLE18=Benny Carter - Pick Yourself Up
TTITLE19=Benny Carter - I Get A Kick Out Of You
EXTD=YEAR: 2006
EXTT0=
EXTT1=
EXTT2=
EXTT3=
EXTT4=
EXTT5=
EXTT6=
EXTT7=
EXTT8=
EXTT9=
EXTT10=
EXTT11=
EXTT12=
EXTT13=
EXTT14=
EXTT15=
EXTT16=
EXTT17=
EXTT18=
EXTT19=
PLAYORDER=
